<svg width="80" height="80" viewBox="0 0 80 80" fill="none" xmlns="http://www.w3.org/2000/svg">
  <!-- Définition du dégradé -->
  <defs>
    <linearGradient id="atbGradient" x1="0%" y1="0%" x2="100%" y2="100%">
      <stop offset="0%" style="stop-color:#A51C30;stop-opacity:1" />
      <stop offset="100%" style="stop-color:#8B1728;stop-opacity:1" />
    </linearGradient>
    <filter id="shadow" x="-50%" y="-50%" width="200%" height="200%">
      <feDropShadow dx="2" dy="4" stdDeviation="3" flood-color="#A51C30" flood-opacity="0.3"/>
    </filter>
  </defs>
  
  <!-- Cercle principal avec dégradé -->
  <circle cx="40" cy="40" r="36" fill="url(#atbGradient)" filter="url(#shadow)"/>
  
  <!-- Cercle intérieur blanc -->
  <circle cx="40" cy="40" r="30" fill="#FFFFFF"/>
  
  <!-- Bordure intérieure -->
  <circle cx="40" cy="40" r="28" fill="none" stroke="#A51C30" stroke-width="1" opacity="0.3"/>
  
  <!-- Logo ATB stylisé -->
  <g transform="translate(40,40)">
    <!-- Lettre A -->
    <path d="M-12,-8 L-8,8 L-16,8 Z M-13,2 L-11,2" stroke="#A51C30" stroke-width="2" fill="#A51C30"/>
    <!-- Lettre T -->
    <path d="M-4,-8 L4,-8 M0,-8 L0,8" stroke="#A51C30" stroke-width="2" fill="none"/>
    <!-- Lettre B -->
    <path d="M8,-8 L8,8 M8,-8 L14,-8 Q16,-8 16,-6 Q16,-4 14,-4 L8,-4 M8,0 L14,0 Q16,0 16,2 Q16,4 14,4 L8,4" stroke="#A51C30" stroke-width="2" fill="none"/>
  </g>
  
  <!-- Éléments décoratifs -->
  <circle cx="40" cy="15" r="2" fill="#A51C30" opacity="0.6"/>
  <circle cx="25" cy="25" r="1.5" fill="#A51C30" opacity="0.4"/>
  <circle cx="55" cy="25" r="1.5" fill="#A51C30" opacity="0.4"/>
  <circle cx="25" cy="55" r="1.5" fill="#A51C30" opacity="0.4"/>
  <circle cx="55" cy="55" r="1.5" fill="#A51C30" opacity="0.4"/>
</svg>
